<svg width="179" height="136" viewBox="0 0 179 136" fill="none" xmlns="http://www.w3.org/2000/svg">
<path d="M119.329 88.3982C100.096 88.3982 84.5272 73.5578 84.5039 55.2011C84.4807 36.8417 100.064 21.8837 119.328 21.908C138.954 21.9329 154.456 37.0697 154.23 55.5617C154.003 74.0879 138.1 88.5023 119.329 88.3982ZM119.333 71.8838C129.009 71.8895 136.896 64.4246 136.907 55.2509C136.918 45.962 129.047 38.4149 119.36 38.4251C109.699 38.435 101.741 46.0415 101.823 55.1876C101.906 64.4627 109.683 71.8781 119.333 71.8838Z" fill="#00A2AC"/>
<path d="M71.6386 67.8121C67.98 63.7498 64.3855 59.7589 60.6898 55.6555C67.755 55.0759 74.6535 54.5101 81.6008 53.9404C81.6625 55.2322 81.7005 56.4694 81.7839 57.7033C82.1671 63.3703 83.8724 68.6626 86.8635 73.5634C87.3256 74.3206 87.3268 74.7823 86.7474 75.4765C80.6788 82.7452 72.8463 87.0856 63.176 88.1845C46.6327 90.064 31.001 80.6386 26.0212 65.4586C21.8693 52.8031 24.726 41.4115 34.3771 31.8049C40.5235 25.687 48.2185 22.4647 57.1011 22.0039C67.1847 21.4807 75.9213 24.586 83.2454 31.2106C84.606 32.4412 85.752 33.8872 87.0142 35.2186C87.3259 35.5474 87.2891 35.8084 87.0661 36.1666C85.025 39.4441 83.5399 42.9379 82.6852 46.6642C82.5656 47.1859 82.2765 47.2888 81.8037 47.29C79.5658 47.2957 77.3278 47.3278 75.0902 47.3074C74.8395 47.305 74.5003 47.0851 74.3556 46.8715C71.6156 42.8254 67.7972 40.273 62.863 39.2308C52.8806 37.1224 42.8369 43.9138 41.6377 53.5903C40.5112 62.6803 46.7336 70.7818 56.2142 72.3277C62.0479 73.279 67.1926 71.6956 71.6386 67.8121Z" fill="#00A2AC"/>
<path d="M118.189 113.014C113.208 113.011 109.488 109.362 109.5 104.491C109.511 99.7306 113.386 95.9332 118.242 95.9224C123.167 95.9116 126.953 99.7003 126.944 104.63C126.936 109.399 123.157 113.017 118.189 113.014ZM113.757 104.438C113.835 104.992 113.872 105.52 113.99 106.031C114.459 108.08 116.015 109.328 118.112 109.369C120.285 109.411 121.923 108.262 122.401 106.175C122.614 105.24 122.654 104.221 122.524 103.271C122.228 101.119 120.614 99.7039 118.553 99.5989C116.315 99.4849 114.648 100.667 114.041 102.834C113.894 103.361 113.847 103.914 113.757 104.438Z" fill="#02A2AD"/>
<path d="M87.9751 104.461C87.9792 99.6873 91.8451 95.908 96.7089 95.9227C101.588 95.9374 105.398 99.7099 105.384 104.513C105.369 109.41 101.637 113.021 96.5966 113.014C91.5994 113.008 87.971 109.408 87.9751 104.461ZM92.2226 104.59C92.2651 104.92 92.2991 105.4 92.3919 105.869C92.7615 107.738 93.9846 108.959 95.7799 109.277C97.6866 109.614 99.3973 109.004 100.267 107.512C101.47 105.45 101.481 103.317 100.151 101.308C98.6603 99.0559 95.0724 98.9742 93.3636 101.083C92.5624 102.072 92.2899 103.225 92.2226 104.59Z" fill="#02A2AD"/>
<path d="M73.5465 106.156C73.5465 108.334 73.5465 110.482 73.5465 112.677C72.2164 112.677 70.9483 112.677 69.6321 112.677C69.6321 107.23 69.6321 101.777 69.6321 96.2766C70.9058 96.2766 72.1714 96.2766 73.5241 96.2766C73.5241 98.4285 73.5241 100.573 73.5241 102.754C75.4082 102.754 77.2063 102.754 79.0822 102.754C79.0822 100.6 79.0822 98.4555 79.0822 96.2703C80.4251 96.2703 81.691 96.2703 83 96.2703C83 101.75 83 107.202 83 112.69C81.6992 112.69 80.4324 112.69 79.1108 112.69C79.1108 110.507 79.1108 108.357 79.1108 106.156C77.2598 106.156 75.462 106.156 73.5465 106.156Z" fill="#00A1AC"/>
<path d="M64.9262 97.4367C64.342 98.5494 63.7969 99.5886 63.2231 100.682C61.6102 99.6804 59.9111 99.4494 58.1259 99.858C55.5218 100.454 53.9561 102.509 54.1832 104.985C54.388 107.217 56.4309 109.05 58.9397 109.252C60.6111 109.386 61.2185 109.258 63.2504 108.33C63.7981 109.37 64.3464 110.412 64.9184 111.498C63.716 112.343 62.3636 112.746 60.9357 112.922C57.0846 113.398 53.8479 112.277 51.5171 109.28C47.9762 104.726 50.2751 98.3595 56.0839 96.4497C58.6723 95.5989 61.2248 95.7939 63.7233 96.7992C64.13 96.9627 64.5006 97.2084 64.9262 97.4367Z" fill="#02A2AD"/>
<path d="M33.1755 110.921C33.9044 109.749 34.5418 108.726 35.0948 107.836C36.3717 108.391 37.558 109.006 38.8185 109.411C39.41 109.602 40.1558 109.45 40.8105 109.339C41.4264 109.234 41.8977 108.784 41.8687 108.189C41.847 107.743 41.6249 107.157 41.2761 106.905C40.5456 106.379 39.6591 106.055 38.8619 105.607C37.9591 105.1 36.976 104.659 36.2179 103.993C34.141 102.168 34.2609 99.1897 36.3893 97.3972C38.4448 95.6662 40.808 95.6419 43.2576 96.3622C44.1284 96.6184 44.9435 97.0477 45.829 97.4167C45.2373 98.5228 44.7157 99.4975 44.2511 100.366C43.1654 100.036 42.1635 99.6688 41.1276 99.4459C40.6444 99.3418 40.0599 99.4234 39.583 99.5854C38.4609 99.967 38.2797 101.12 39.2674 101.747C40.0954 102.272 41.0562 102.603 41.9247 103.076C42.8984 103.607 43.9069 104.114 44.7727 104.782C47.4063 106.814 46.3588 111.069 43.5662 112.264C40.8001 113.447 38.0406 113.241 35.3273 112.1C34.6028 111.797 33.9453 111.348 33.1755 110.921Z" fill="#02A2AD"/>
<path d="M131.907 96.2502C133.245 96.2502 134.498 96.2502 135.828 96.2502C135.828 100.615 135.828 104.963 135.828 109.376C137.823 109.376 139.745 109.376 141.713 109.376C141.713 110.504 141.713 111.568 141.713 112.679C138.457 112.679 135.207 112.679 131.907 112.679C131.907 107.215 131.907 101.769 131.907 96.2502Z" fill="#00A1AC"/>
</svg>
