<?xml version="1.0" standalone="no"?>
<!DOCTYPE svg PUBLIC "-//W3C//DTD SVG 20010904//EN"
 "http://www.w3.org/TR/2001/REC-SVG-20010904/DTD/svg10.dtd">
<svg version="1.0" xmlns="http://www.w3.org/2000/svg"
 width="1183.000000pt" height="1183.000000pt" viewBox="0 0 1183.000000 1183.000000"
 preserveAspectRatio="xMidYMid meet">
<metadata>
Created by potrace 1.14, written by Peter Selinger 2001-2017
</metadata>
<g transform="translate(0.000000,1183.000000) scale(0.100000,-0.100000)"
fill="#000000" stroke="none">
<path d="M3808 9085 c-2 -1 -47 -5 -101 -9 -360 -23 -788 -178 -1109 -402
-145 -101 -355 -293 -454 -415 -91 -112 -170 -224 -222 -314 -55 -96 -138
-270 -158 -330 -2 -5 -17 -47 -33 -93 -46 -131 -92 -327 -106 -457 -3 -27 -8
-66 -11 -85 -7 -44 -6 -327 0 -395 9 -84 17 -156 22 -184 60 -338 186 -651
373 -926 367 -540 972 -910 1616 -990 137 -17 380 -23 480 -11 71 8 148 18
165 21 8 1 35 6 60 10 67 11 71 12 120 25 25 7 56 14 69 17 69 12 283 93 406
154 323 158 638 415 828 676 l38 53 -48 87 c-127 228 -212 447 -269 698 -15
67 -30 151 -38 210 -3 22 -8 65 -12 95 -8 68 -12 139 -13 254 l-1 88 -82 -7
c-83 -7 -115 -10 -238 -19 -36 -3 -86 -8 -110 -10 -25 -3 -76 -7 -115 -11 -38
-3 -92 -8 -120 -10 -27 -3 -81 -7 -120 -11 -38 -3 -88 -7 -110 -9 -22 -2 -78
-7 -125 -10 -47 -3 -98 -8 -115 -10 -58 -7 -190 -18 -217 -18 -37 1 -35 -9 10
-59 59 -67 74 -85 367 -428 153 -179 285 -333 294 -344 15 -17 13 -21 -29 -58
-313 -275 -762 -363 -1164 -226 -87 29 -241 110 -311 163 -262 197 -419 469
-470 810 -7 45 -7 217 -1 255 3 14 7 43 10 65 8 63 43 189 66 242 52 117 66
143 117 221 103 157 298 326 467 406 64 30 225 85 271 91 16 3 57 9 90 14 85
13 297 5 383 -13 302 -65 568 -242 734 -485 l53 -78 245 2 c135 2 252 3 261 4
12 1 24 34 49 129 18 70 37 134 41 142 4 8 22 56 40 105 36 101 121 281 173
367 l34 57 -36 48 c-98 131 -263 301 -392 404 -164 131 -318 222 -555 329
-116 52 -356 121 -500 144 -84 13 -115 17 -165 22 -57 6 -327 13 -332 9z"/>
<path d="M7798 9086 c-1 -2 -43 -6 -93 -9 -170 -12 -356 -52 -547 -116 -345
-118 -619 -290 -883 -555 -400 -401 -626 -895 -671 -1466 -13 -161 2 -443 32
-581 2 -13 9 -49 15 -79 32 -162 134 -436 226 -603 55 -100 152 -251 164 -255
5 -2 9 -8 9 -14 0 -24 208 -253 330 -363 176 -158 420 -310 645 -403 152 -62
348 -120 460 -136 39 -6 66 -10 130 -21 131 -21 482 -21 585 0 14 3 45 8 70
11 25 3 61 9 80 14 19 5 51 11 71 14 41 6 299 84 314 95 6 4 33 16 60 25 81
30 285 139 393 211 456 304 795 769 943 1295 16 58 32 121 35 140 4 19 7 40 9
45 28 126 40 262 39 445 0 138 -8 265 -19 320 -2 14 -7 41 -9 60 -11 81 -50
234 -92 360 -113 334 -300 635 -552 888 -222 222 -430 361 -767 512 -34 15
-196 70 -239 81 -154 38 -227 53 -311 64 -27 3 -66 8 -85 10 -41 6 -337 15
-342 11z m257 -1156 c28 -5 64 -11 80 -14 17 -3 42 -8 58 -11 54 -10 189 -65
271 -109 254 -139 453 -377 545 -651 16 -49 32 -103 36 -120 77 -399 -38 -788
-315 -1065 -184 -185 -429 -307 -675 -336 -368 -44 -757 97 -995 360 -19 22
-40 44 -45 50 -25 26 -87 118 -121 177 -61 107 -112 250 -130 363 -3 21 -8 48
-10 60 -10 47 -4 266 10 341 102 555 578 960 1131 962 61 1 133 -3 160 -7z"/>
<path d="M2638 3945 c-2 -2 -21 -6 -43 -9 -104 -17 -216 -104 -263 -204 -21
-46 -26 -71 -26 -132 1 -143 67 -225 259 -322 161 -80 179 -92 200 -131 24
-45 8 -95 -38 -122 -48 -30 -165 -27 -232 5 -54 26 -122 67 -143 87 -7 7 -15
13 -17 13 -2 0 -33 -50 -69 -111 l-66 -111 23 -18 c35 -29 129 -77 199 -100
81 -28 270 -38 349 -20 164 38 261 133 288 280 31 173 -53 293 -275 396 -144
66 -163 76 -196 108 -26 24 -29 33 -25 63 10 59 44 82 127 88 41 3 124 -20
179 -48 28 -15 53 -27 55 -27 2 0 28 46 56 102 50 97 52 102 34 116 -30 23
-118 60 -181 76 -51 13 -188 28 -195 21z"/>
<path d="M3865 3943 c-88 -14 -142 -30 -220 -68 -148 -71 -261 -198 -316 -355
-34 -97 -32 -259 4 -352 81 -209 275 -370 488 -404 71 -11 191 -6 264 10 6 1
26 6 45 10 40 10 156 62 164 74 3 5 -20 58 -49 118 l-55 111 -57 -28 c-112
-55 -246 -54 -360 1 -203 100 -246 364 -85 525 41 41 119 81 177 92 99 17 231
-2 288 -42 12 -8 25 -15 29 -15 8 0 37 53 90 163 l27 58 -32 19 c-44 28 -132
60 -193 71 -54 10 -176 17 -209 12z"/>
<path d="M6295 3934 c-189 -36 -353 -177 -430 -369 -40 -101 -47 -265 -16
-379 37 -134 116 -254 209 -318 60 -41 148 -84 192 -92 19 -3 46 -9 60 -12 32
-7 133 -7 185 0 229 30 422 214 471 446 40 193 -1 381 -114 520 -48 58 -64 72
-142 124 -120 80 -266 107 -415 80z m249 -278 c101 -59 149 -158 149 -306 0
-207 -101 -329 -277 -335 -191 -7 -308 130 -301 352 4 145 78 267 186 306 67
25 186 17 243 -17z"/>
<path d="M7788 3945 c-2 -2 -22 -5 -46 -9 -70 -9 -113 -24 -175 -58 -201 -114
-310 -300 -309 -528 1 -281 168 -507 424 -575 72 -19 277 -14 336 9 195 74
316 207 371 405 29 105 24 267 -12 363 -86 234 -277 378 -519 392 -37 2 -68 2
-70 1z m175 -284 c134 -65 200 -272 142 -444 -29 -84 -69 -135 -136 -172 -45
-24 -64 -28 -133 -29 -65 -1 -90 4 -127 22 -59 28 -102 71 -128 127 -94 200
-19 446 155 511 58 21 168 14 227 -15z"/>
<path d="M4610 3353 c0 -451 3 -573 13 -574 49 -3 239 0 243 4 3 3 6 106 6
230 l0 225 184 0 184 0 0 -229 0 -229 55 -1 c69 -1 92 -1 158 0 l52 1 -1 559
c0 307 -3 565 -6 572 -4 11 -32 14 -129 14 l-124 0 -3 -227 c-2 -208 -4 -228
-20 -229 -21 -1 -311 -1 -333 0 -14 1 -16 24 -17 199 -1 108 -1 211 -2 227 l0
30 -130 0 -130 0 0 -572z"/>
<path d="M8742 3920 c-4 -3 -8 -260 -7 -572 l0 -568 27 -1 c147 -3 620 0 624
4 4 4 8 152 5 210 -1 16 -17 17 -196 17 l-195 0 -2 457 -3 458 -123 0 c-67 1
-126 -2 -130 -5z"/>
</g>
</svg>
